<svg width="38" height="21" viewBox="0 0 38 21" fill="none" xmlns="http://www.w3.org/2000/svg">
<path d="M6.58301 12.6826H2.72754L1.9209 15H0.123047L3.88281 5.04688H5.43457L9.20117 15H7.39648L6.58301 12.6826ZM3.21289 11.2881H6.09766L4.65527 7.15918L3.21289 11.2881ZM16.666 11.377C16.666 12.5254 16.4085 13.4391 15.8936 14.1182C15.3831 14.7972 14.679 15.1367 13.7812 15.1367C12.9154 15.1367 12.2409 14.8245 11.7578 14.2002L11.6758 15H10.1719V4.5H11.833V8.31445C12.3115 7.74935 12.9564 7.4668 13.7676 7.4668C14.6699 7.4668 15.3786 7.80176 15.8936 8.47168C16.4085 9.1416 16.666 10.0781 16.666 11.2812V11.377ZM15.0049 11.2334C15.0049 10.4313 14.8636 9.82975 14.5811 9.42871C14.2985 9.02767 13.8883 8.82715 13.3506 8.82715C12.6305 8.82715 12.1247 9.1416 11.833 9.77051V12.8193C12.1292 13.4619 12.6396 13.7832 13.3643 13.7832C13.8838 13.7832 14.2848 13.5895 14.5674 13.2021C14.8499 12.8148 14.9958 12.2292 15.0049 11.4453V11.2334ZM17.7529 11.2334C17.7529 10.5088 17.8965 9.8571 18.1836 9.27832C18.4707 8.69499 18.874 8.24837 19.3936 7.93848C19.9131 7.62402 20.5101 7.4668 21.1846 7.4668C22.1826 7.4668 22.9915 7.78809 23.6113 8.43066C24.2357 9.07324 24.5729 9.92546 24.623 10.9873L24.6299 11.377C24.6299 12.1061 24.4886 12.7578 24.2061 13.332C23.9281 13.9062 23.527 14.3506 23.0029 14.665C22.4834 14.9795 21.8818 15.1367 21.1982 15.1367C20.1546 15.1367 19.3184 14.7904 18.6895 14.0977C18.0651 13.4004 17.7529 12.473 17.7529 11.3154V11.2334ZM19.4141 11.377C19.4141 12.138 19.5713 12.735 19.8857 13.168C20.2002 13.5964 20.6377 13.8105 21.1982 13.8105C21.7588 13.8105 22.194 13.5918 22.5039 13.1543C22.8184 12.7168 22.9756 12.0765 22.9756 11.2334C22.9756 10.486 22.8138 9.89355 22.4902 9.45605C22.1712 9.01855 21.736 8.7998 21.1846 8.7998C20.6423 8.7998 20.2116 9.01628 19.8926 9.44922C19.5736 9.8776 19.4141 10.5202 19.4141 11.377ZM30.5156 14.2754C30.028 14.8496 29.3353 15.1367 28.4375 15.1367C27.6354 15.1367 27.027 14.902 26.6123 14.4326C26.2021 13.9632 25.9971 13.2842 25.9971 12.3955V7.60352H27.6582V12.375C27.6582 13.3138 28.0479 13.7832 28.8271 13.7832C29.6338 13.7832 30.1784 13.4938 30.4609 12.915V7.60352H32.1221V15H30.5566L30.5156 14.2754ZM35.8955 5.80566V7.60352H37.2012V8.83398H35.8955V12.9629C35.8955 13.2454 35.9502 13.4505 36.0596 13.5781C36.1735 13.7012 36.374 13.7627 36.6611 13.7627C36.8525 13.7627 37.0462 13.7399 37.2422 13.6943V14.9795C36.8639 15.0843 36.4993 15.1367 36.1484 15.1367C34.8724 15.1367 34.2344 14.4326 34.2344 13.0244V8.83398H33.0176V7.60352H34.2344V5.80566H35.8955Z" fill="white"/>
<line y1="20.5" x2="38" y2="20.5" stroke="white"/>
</svg>
